<?xml version="1.0" standalone="no"?>
<!DOCTYPE svg PUBLIC "-//W3C//DTD SVG 20010904//EN"
 "http://www.w3.org/TR/2001/REC-SVG-20010904/DTD/svg10.dtd">
<svg version="1.0" xmlns="http://www.w3.org/2000/svg"
 width="1196.000000pt" height="746.000000pt" viewBox="0 0 1196.000000 746.000000"
 preserveAspectRatio="xMidYMid meet">

<g transform="translate(0.000000,746.000000) scale(0.100000,-0.100000)"
fill="#000000" stroke="none">
<path d="M0 6760 l0 -700 5980 0 5980 0 0 700 0 700 -5980 0 -5980 0 0 -700z"/>
<path d="M0 3730 l0 -700 5980 0 5980 0 0 700 0 700 -5980 0 -5980 0 0 -700z"/>
<path d="M0 700 l0 -700 5980 0 5980 0 0 700 0 700 -5980 0 -5980 0 0 -700z"/>
</g>
</svg>
