<svg width="198" height="30" viewBox="0 0 198 30" fill="none" xmlns="http://www.w3.org/2000/svg">
<path d="M11.324 22H6.79402V4.36H0.974023V0.579999H17.144V4.36H11.324V22ZM27.7129 5.32C29.5529 5.32 31.0429 6.04 32.1829 7.48C33.3229 8.9 33.8929 11 33.8929 13.78C33.8929 15.64 33.6229 17.21 33.0829 18.49C32.5429 19.75 31.8029 20.7 30.8629 21.34C29.9229 21.98 28.8329 22.3 27.5929 22.3C26.8129 22.3 26.1329 22.2 25.5529 22C24.9929 21.8 24.5129 21.54 24.1129 21.22C23.7129 20.9 23.3629 20.56 23.0629 20.2H22.8229C22.9029 20.58 22.9629 20.98 23.0029 21.4C23.0429 21.8 23.0629 22.2 23.0629 22.6V29.2H18.5929V5.62H22.2229L22.8529 7.75H23.0629C23.3629 7.31 23.7229 6.91 24.1429 6.55C24.5629 6.17 25.0629 5.87 25.6429 5.65C26.2429 5.43 26.9329 5.32 27.7129 5.32ZM26.2729 8.89C25.4929 8.89 24.8729 9.05 24.4129 9.37C23.9529 9.69 23.6129 10.18 23.3929 10.84C23.1929 11.48 23.0829 12.29 23.0629 13.27V13.75C23.0629 14.81 23.1629 15.71 23.3629 16.45C23.5629 17.17 23.9029 17.72 24.3829 18.1C24.8629 18.48 25.5129 18.67 26.3329 18.67C27.0129 18.67 27.5729 18.48 28.0129 18.1C28.4529 17.72 28.7829 17.16 29.0029 16.42C29.2229 15.68 29.3329 14.78 29.3329 13.72C29.3329 12.12 29.0829 10.92 28.5829 10.12C28.1029 9.3 27.3329 8.89 26.2729 8.89ZM44.2973 5.29C46.4973 5.29 48.1773 5.77 49.3373 6.73C50.5173 7.67 51.1073 9.12 51.1073 11.08V22H47.9873L47.1173 19.78H46.9973C46.5373 20.36 46.0573 20.84 45.5573 21.22C45.0773 21.6 44.5173 21.87 43.8773 22.03C43.2573 22.21 42.4873 22.3 41.5673 22.3C40.6073 22.3 39.7373 22.12 38.9573 21.76C38.1973 21.38 37.5973 20.81 37.1573 20.05C36.7173 19.27 36.4973 18.29 36.4973 17.11C36.4973 15.37 37.1073 14.09 38.3273 13.27C39.5473 12.43 41.3773 11.97 43.8173 11.89L46.6673 11.8V11.08C46.6673 10.22 46.4373 9.59 45.9773 9.19C45.5373 8.79 44.9173 8.59 44.1173 8.59C43.3173 8.59 42.5373 8.71 41.7773 8.95C41.0173 9.17 40.2573 9.45 39.4973 9.79L38.0273 6.76C38.9073 6.3 39.8773 5.94 40.9373 5.68C42.0173 5.42 43.1373 5.29 44.2973 5.29ZM44.9273 14.47C43.4873 14.51 42.4873 14.77 41.9273 15.25C41.3673 15.73 41.0873 16.36 41.0873 17.14C41.0873 17.82 41.2873 18.31 41.6873 18.61C42.0873 18.89 42.6073 19.03 43.2473 19.03C44.2073 19.03 45.0173 18.75 45.6773 18.19C46.3373 17.61 46.6673 16.8 46.6673 15.76V14.41L44.9273 14.47ZM60.1528 5.62V11.92H66.3928V5.62H70.8628V22H66.3928V15.25H60.1528V22H55.6828V5.62H60.1528ZM82.2061 22.3C80.5861 22.3 79.2061 22.01 78.0661 21.43C76.9261 20.83 76.0561 19.91 75.4561 18.67C74.8561 17.43 74.5561 15.84 74.5561 13.9C74.5561 11.9 74.8961 10.27 75.5761 9.01C76.2561 7.75 77.1961 6.82 78.3961 6.22C79.6161 5.62 81.0161 5.32 82.5961 5.32C83.7161 5.32 84.6861 5.43 85.5061 5.65C86.3461 5.87 87.0761 6.13 87.6961 6.43L86.3761 9.88C85.6761 9.6 85.0161 9.37 84.3961 9.19C83.7961 9.01 83.1961 8.92 82.5961 8.92C81.8161 8.92 81.1661 9.11 80.6461 9.49C80.1261 9.85 79.7361 10.4 79.4761 11.14C79.2361 11.86 79.1161 12.77 79.1161 13.87C79.1161 14.95 79.2461 15.85 79.5061 16.57C79.7861 17.27 80.1861 17.8 80.7061 18.16C81.2261 18.5 81.8561 18.67 82.5961 18.67C83.5361 18.67 84.3661 18.55 85.0861 18.31C85.8061 18.05 86.5061 17.7 87.1861 17.26V21.07C86.5061 21.51 85.7861 21.82 85.0261 22C84.2861 22.2 83.3461 22.3 82.2061 22.3ZM105.836 5.62V22H101.366V8.98H95.4262V22H90.9562V5.62H105.836ZM119.647 5.32C121.487 5.32 122.977 6.04 124.117 7.48C125.257 8.9 125.827 11 125.827 13.78C125.827 15.64 125.557 17.21 125.017 18.49C124.477 19.75 123.737 20.7 122.797 21.34C121.857 21.98 120.767 22.3 119.527 22.3C118.747 22.3 118.067 22.2 117.487 22C116.927 21.8 116.447 21.54 116.047 21.22C115.647 20.9 115.297 20.56 114.997 20.2H114.757C114.837 20.58 114.897 20.98 114.937 21.4C114.977 21.8 114.997 22.2 114.997 22.6V29.2H110.527V5.62H114.157L114.787 7.75H114.997C115.297 7.31 115.657 6.91 116.077 6.55C116.497 6.17 116.997 5.87 117.577 5.65C118.177 5.43 118.867 5.32 119.647 5.32ZM118.207 8.89C117.427 8.89 116.807 9.05 116.347 9.37C115.887 9.69 115.547 10.18 115.327 10.84C115.127 11.48 115.017 12.29 114.997 13.27V13.75C114.997 14.81 115.097 15.71 115.297 16.45C115.497 17.17 115.837 17.72 116.317 18.1C116.797 18.48 117.447 18.67 118.267 18.67C118.947 18.67 119.507 18.48 119.947 18.1C120.387 17.72 120.717 17.16 120.937 16.42C121.157 15.68 121.267 14.78 121.267 13.72C121.267 12.12 121.017 10.92 120.517 10.12C120.037 9.3 119.267 8.89 118.207 8.89ZM144.391 13.78C144.391 15.14 144.201 16.35 143.821 17.41C143.461 18.47 142.931 19.37 142.231 20.11C141.551 20.83 140.721 21.38 139.741 21.76C138.761 22.12 137.651 22.3 136.411 22.3C135.271 22.3 134.211 22.12 133.231 21.76C132.271 21.38 131.441 20.83 130.741 20.11C130.041 19.37 129.491 18.47 129.091 17.41C128.711 16.35 128.521 15.14 128.521 13.78C128.521 11.96 128.841 10.43 129.481 9.19C130.121 7.93 131.041 6.97 132.241 6.31C133.441 5.65 134.861 5.32 136.501 5.32C138.041 5.32 139.401 5.65 140.581 6.31C141.761 6.97 142.691 7.93 143.371 9.19C144.051 10.43 144.391 11.96 144.391 13.78ZM133.081 13.78C133.081 14.86 133.191 15.77 133.411 16.51C133.651 17.23 134.021 17.78 134.521 18.16C135.021 18.52 135.671 18.7 136.471 18.7C137.271 18.7 137.911 18.52 138.391 18.16C138.891 17.78 139.251 17.23 139.471 16.51C139.711 15.77 139.831 14.86 139.831 13.78C139.831 12.7 139.711 11.8 139.471 11.08C139.251 10.36 138.891 9.82 138.391 9.46C137.891 9.1 137.241 8.92 136.441 8.92C135.261 8.92 134.401 9.33 133.861 10.15C133.341 10.95 133.081 12.16 133.081 13.78ZM154.835 5.32C156.355 5.32 157.655 5.61 158.735 6.19C159.835 6.77 160.685 7.61 161.285 8.71C161.885 9.81 162.185 11.16 162.185 12.76V14.92H151.625C151.665 16.18 152.035 17.17 152.735 17.89C153.455 18.61 154.445 18.97 155.705 18.97C156.765 18.97 157.725 18.87 158.585 18.67C159.445 18.45 160.335 18.12 161.255 17.68V21.13C160.455 21.53 159.605 21.82 158.705 22C157.825 22.2 156.755 22.3 155.495 22.3C153.855 22.3 152.405 22 151.145 21.4C149.885 20.78 148.895 19.85 148.175 18.61C147.455 17.37 147.095 15.81 147.095 13.93C147.095 12.01 147.415 10.42 148.055 9.16C148.715 7.88 149.625 6.92 150.785 6.28C151.945 5.64 153.295 5.32 154.835 5.32ZM154.865 8.5C154.005 8.5 153.285 8.78 152.705 9.34C152.145 9.9 151.815 10.77 151.715 11.95H157.985C157.985 11.29 157.865 10.7 157.625 10.18C157.405 9.66 157.065 9.25 156.605 8.95C156.145 8.65 155.565 8.5 154.865 8.5ZM176.55 5.62H181.47L174.99 13.48L182.04 22H176.97L170.28 13.69V22H165.81V5.62H170.28V13.57L176.55 5.62ZM197.944 8.98H192.574V22H188.104V8.98H182.734V5.62H197.944V8.98Z" fill="#1C425F"/>
</svg>
